# xmcd
#
# Track frame offsets: 
#        150
#        11105
#        23065
#        31409
#        41742
#        52826
#        61635
#        72017
#        81202
#        92420
#        104632
#        117946
#        127968
#        139397
#        150540
#        160519
#        171233
#        182105
#
# Disc length: 2577 seconds
#
# Revision: 0
# Processed by: cddbd v1.5.2PL0 Copyright (c) Steve Scherf et al.
# Submitted via: ExactAudioCopy v1.1
#
DISCID=e20a0f12
DTITLE=George Jones - George Jone Vol. 2_6 Classic Albums Plus_CD3
DYEAR=2014
DGENRE=Country
TTITLE0=Someone's Watching Over You
TTITLE1=He Made Me Free
TTITLE2=Beacon In The Night
TTITLE3=Matthew Twnet-Four
TTITLE4=Wandering Soul
TTITLE5=He's So Good To Me
TTITLE6=Magic Valley
TTITLE7=Kneel At The Feet Of Jesus
TTITLE8=Homecoming In Heaven
TTITLE9=My Cup Runneth Over
TTITLE10=Wedding Bells
TTITLE11=I Heard You Crying In Your Sleep
TTITLE12=I Just Don't Like This Kind Of Living
TTITLE13=You Win Again
TTITLE14=You're Gonna Change
TTITLE15=Lonesome Whistle
TTITLE16=A House Without Love
TTITLE17=Your Cheating Heart
EXTD=
EXTT0=
EXTT1=
EXTT2=
EXTT3=
EXTT4=
EXTT5=
EXTT6=
EXTT7=
EXTT8=
EXTT9=
EXTT10=
EXTT11=
EXTT12=
EXTT13=
EXTT14=
EXTT15=
EXTT16=
EXTT17=
PLAYORDER=
